<svg xmlns="http://www.w3.org/2000/svg" viewBox="0 0 406.99 53.18"><defs><style>.cls-1{fill:#3faae1;}</style></defs><title>资源 1</title><g id="图层_2" data-name="图层 2"><g id="_1_E_best" data-name="1_E_best"><polygon class="cls-1" points="405.09 9.98 406.99 1.06 378.23 1.06 373.44 23.72 370.79 36.25 367.37 52.45 378.09 52.45 380 43.45 379.99 43.45 382.8 30.2 399.57 30.2 401.51 21.27 384.74 21.27 387.09 9.98 405.09 9.98"/><polygon class="cls-1" points="370.99 52.45 396.09 52.45 397.99 43.45 372.9 43.45 370.99 52.45"/><path class="cls-1" d="M361.61,24.7a15.73,15.73,0,0,0,2.92-9.54q0-6.93-4.18-10.51T347.83,1.06H335.21L333.32,10h13.35q3.59,0,5.26,1.44a5.4,5.4,0,0,1,1.67,4.32q0,4.11-2.57,6.12a11.4,11.4,0,0,1-7.17,2h-2.74l2.35-11H332.72l-8.37,39.62h10.72l4.18-19.72h4.18l7.28,19.72h11.67l-9.18-21.83A17.09,17.09,0,0,0,361.61,24.7Z"/><path class="cls-1" d="M308.15,40.94H291l-5.62,11.43H275.06L302.2.79H314l5.37,51.57H308.87Zm-.55-8.58L306.2,9.94l-11,22.42Z"/><path class="cls-1" d="M269.9,52.45H259.15l4.71-22.18H247.3l-4.71,22.18H231.86l10.86-51.4h10.76L249.23,21.2h16.56L270,1.06h10.72Z"/><path class="cls-1" d="M228.09,36.95a14.23,14.23,0,0,1-5.2,11.62q-5.2,4.27-14.1,4.27c-5.18,0-11.41-1.81-14.58-3.92L196.28,40q6.79,3.8,12.59,3.8A10.9,10.9,0,0,0,215,42.35a4.69,4.69,0,0,0,2.21-4.1,6.88,6.88,0,0,0-.47-2.65,7.52,7.52,0,0,0-1.35-2.13A36.76,36.76,0,0,0,211,29.88,23.49,23.49,0,0,1,204.22,23a14.45,14.45,0,0,1-2-7.35,15.23,15.23,0,0,1,2.18-8.1A14.69,14.69,0,0,1,210.64,2a20.68,20.68,0,0,1,9.26-2,29.42,29.42,0,0,1,15.39,4.49l-1.88,8.91C230.17,11.32,224,9,219.9,9.07a7.36,7.36,0,0,0-4.78,1.58,5.22,5.22,0,0,0-1.86,4.18,6.21,6.21,0,0,0,1.16,3.74,21.26,21.26,0,0,0,5.2,4.24A20.81,20.81,0,0,1,226,29,14.7,14.7,0,0,1,228.09,36.95Z"/><g id="creat"><path class="cls-1" d="M174.74,52.29H164L172.94,10H158.57L160.5.89H199L197.08,10H183.67Z"/><path class="cls-1" d="M145.07,40.78H127.88L122.26,52.2H112L139.12.63H150.9l5.37,51.57H145.78Zm-.55-8.58-1.4-22.42-11,22.42Z"/><polygon class="cls-1" points="116.01 9.73 117.91 0.81 89.15 0.81 84.36 23.47 81.71 36 78.28 52.2 89 52.2 90.92 43.2 90.91 43.2 93.72 29.95 110.49 29.95 112.42 21.02 95.65 21.02 98.01 9.73 116.01 9.73"/><polygon class="cls-1" points="81.9 52.2 107.01 52.2 108.91 43.2 83.81 43.2 81.9 52.2"/><path class="cls-1" d="M73.09,24.45A15.73,15.73,0,0,0,76,14.9Q76,8,71.82,4.39T59.31.81H46.68L44.8,9.75H58.15q3.59,0,5.26,1.44a5.4,5.4,0,0,1,1.67,4.32q0,4.11-2.57,6.12a11.4,11.4,0,0,1-7.17,2H52.59l2.35-11H44.2L35.82,52.2H46.54l4.18-19.72h4.18L62.19,52.2H73.86L64.68,30.37A17.09,17.09,0,0,0,73.09,24.45Z"/><path class="cls-1" d="M18.93,12.42a16.86,16.86,0,0,0-2.82,2.89,22.36,22.36,0,0,0-2.92,5.28,31.35,31.35,0,0,0-2.25,11.88q0,5.87,2.41,8.72T21,44a32.6,32.6,0,0,0,11.88-2.71l-2,9.14c-4.66,1.8-7.35,2.71-12.06,2.71Q9.91,53.18,5,47.93T0,33a39.25,39.25,0,0,1,3.66-17A29.43,29.43,0,0,1,13.43,4.3C22.26-1.94,33.2,0,41.49,1.55L39.79,9.7C34.18,8.76,24.64,7.81,18.93,12.42Z"/></g></g></g></svg>